<mxfile host="app.diagrams.net" modified="2024-07-23T19:42:29.857Z" agent="Mozilla/5.0 (Macintosh; Intel Mac OS X 10_15_7) AppleWebKit/537.36 (KHTML, like Gecko) Chrome/126.0.0.0 Safari/537.36" etag="mGjq1DZcBxCLsRNfQXlk" version="24.7.1" type="github">
  <diagram id="6a731a19-8d31-9384-78a2-239565b7b9f0" name="Page-1">
    <mxGraphModel dx="1272" dy="820" grid="1" gridSize="10" guides="1" tooltips="1" connect="1" arrows="1" fold="1" page="1" pageScale="1" pageWidth="1169" pageHeight="827" background="none" math="0" shadow="0">
      <root>
        <mxCell id="0" />
        <mxCell id="1" parent="0" />
        <mxCell id="CV6ZqZZLplrBWhdCv_qK-84" value="" style="edgeStyle=orthogonalEdgeStyle;rounded=0;orthogonalLoop=1;jettySize=auto;html=1;" edge="1" parent="1" source="CV6ZqZZLplrBWhdCv_qK-56" target="CV6ZqZZLplrBWhdCv_qK-71">
          <mxGeometry relative="1" as="geometry" />
        </mxCell>
        <mxCell id="CV6ZqZZLplrBWhdCv_qK-56" value="Start" style="ellipse;whiteSpace=wrap;html=1;" vertex="1" parent="1">
          <mxGeometry width="120" height="80" as="geometry" />
        </mxCell>
        <mxCell id="CV6ZqZZLplrBWhdCv_qK-60" value="" style="edgeStyle=orthogonalEdgeStyle;rounded=0;orthogonalLoop=1;jettySize=auto;html=1;" edge="1" parent="1" source="CV6ZqZZLplrBWhdCv_qK-58" target="CV6ZqZZLplrBWhdCv_qK-59">
          <mxGeometry relative="1" as="geometry" />
        </mxCell>
        <mxCell id="CV6ZqZZLplrBWhdCv_qK-58" value="input loanType" style="shape=parallelogram;perimeter=parallelogramPerimeter;whiteSpace=wrap;html=1;fixedSize=1;" vertex="1" parent="1">
          <mxGeometry x="120" y="610" width="120" height="60" as="geometry" />
        </mxCell>
        <mxCell id="CV6ZqZZLplrBWhdCv_qK-62" value="" style="edgeStyle=orthogonalEdgeStyle;rounded=0;orthogonalLoop=1;jettySize=auto;html=1;" edge="1" parent="1" source="CV6ZqZZLplrBWhdCv_qK-59" target="CV6ZqZZLplrBWhdCv_qK-61">
          <mxGeometry relative="1" as="geometry" />
        </mxCell>
        <mxCell id="CV6ZqZZLplrBWhdCv_qK-66" value="" style="edgeStyle=orthogonalEdgeStyle;rounded=0;orthogonalLoop=1;jettySize=auto;html=1;" edge="1" parent="1" source="CV6ZqZZLplrBWhdCv_qK-59" target="CV6ZqZZLplrBWhdCv_qK-65">
          <mxGeometry relative="1" as="geometry" />
        </mxCell>
        <mxCell id="CV6ZqZZLplrBWhdCv_qK-59" value="private" style="rhombus;whiteSpace=wrap;html=1;" vertex="1" parent="1">
          <mxGeometry x="140" y="720" width="80" height="80" as="geometry" />
        </mxCell>
        <mxCell id="CV6ZqZZLplrBWhdCv_qK-104" value="" style="edgeStyle=orthogonalEdgeStyle;rounded=0;orthogonalLoop=1;jettySize=auto;html=1;" edge="1" parent="1" source="CV6ZqZZLplrBWhdCv_qK-61" target="CV6ZqZZLplrBWhdCv_qK-103">
          <mxGeometry relative="1" as="geometry" />
        </mxCell>
        <mxCell id="CV6ZqZZLplrBWhdCv_qK-61" value="public" style="rhombus;whiteSpace=wrap;html=1;" vertex="1" parent="1">
          <mxGeometry x="140" y="840" width="80" height="80" as="geometry" />
        </mxCell>
        <mxCell id="CV6ZqZZLplrBWhdCv_qK-65" value="Refinance" style="shape=parallelogram;perimeter=parallelogramPerimeter;whiteSpace=wrap;html=1;fixedSize=1;" vertex="1" parent="1">
          <mxGeometry x="240" y="730" width="120" height="60" as="geometry" />
        </mxCell>
        <mxCell id="CV6ZqZZLplrBWhdCv_qK-67" style="edgeStyle=orthogonalEdgeStyle;rounded=0;orthogonalLoop=1;jettySize=auto;html=1;exitX=0.5;exitY=1;exitDx=0;exitDy=0;" edge="1" parent="1" source="CV6ZqZZLplrBWhdCv_qK-58" target="CV6ZqZZLplrBWhdCv_qK-58">
          <mxGeometry relative="1" as="geometry" />
        </mxCell>
        <mxCell id="CV6ZqZZLplrBWhdCv_qK-75" value="" style="edgeStyle=orthogonalEdgeStyle;rounded=0;orthogonalLoop=1;jettySize=auto;html=1;" edge="1" parent="1" source="CV6ZqZZLplrBWhdCv_qK-71" target="CV6ZqZZLplrBWhdCv_qK-74">
          <mxGeometry relative="1" as="geometry" />
        </mxCell>
        <mxCell id="CV6ZqZZLplrBWhdCv_qK-71" value="monthly payment calc or loan management" style="shape=parallelogram;perimeter=parallelogramPerimeter;whiteSpace=wrap;html=1;fixedSize=1;" vertex="1" parent="1">
          <mxGeometry y="130" width="120" height="60" as="geometry" />
        </mxCell>
        <mxCell id="CV6ZqZZLplrBWhdCv_qK-77" value="" style="edgeStyle=orthogonalEdgeStyle;rounded=0;orthogonalLoop=1;jettySize=auto;html=1;" edge="1" parent="1" source="CV6ZqZZLplrBWhdCv_qK-74" target="CV6ZqZZLplrBWhdCv_qK-76">
          <mxGeometry relative="1" as="geometry" />
        </mxCell>
        <mxCell id="CV6ZqZZLplrBWhdCv_qK-79" value="" style="edgeStyle=orthogonalEdgeStyle;rounded=0;orthogonalLoop=1;jettySize=auto;html=1;" edge="1" parent="1" source="CV6ZqZZLplrBWhdCv_qK-74" target="CV6ZqZZLplrBWhdCv_qK-78">
          <mxGeometry relative="1" as="geometry" />
        </mxCell>
        <mxCell id="CV6ZqZZLplrBWhdCv_qK-74" value="calculator" style="rhombus;whiteSpace=wrap;html=1;" vertex="1" parent="1">
          <mxGeometry x="20" y="240" width="80" height="80" as="geometry" />
        </mxCell>
        <mxCell id="CV6ZqZZLplrBWhdCv_qK-100" value="" style="edgeStyle=orthogonalEdgeStyle;rounded=0;orthogonalLoop=1;jettySize=auto;html=1;" edge="1" parent="1" source="CV6ZqZZLplrBWhdCv_qK-76" target="CV6ZqZZLplrBWhdCv_qK-58">
          <mxGeometry relative="1" as="geometry" />
        </mxCell>
        <mxCell id="CV6ZqZZLplrBWhdCv_qK-76" value="management" style="rhombus;whiteSpace=wrap;html=1;" vertex="1" parent="1">
          <mxGeometry x="20" y="600" width="80" height="80" as="geometry" />
        </mxCell>
        <mxCell id="CV6ZqZZLplrBWhdCv_qK-81" value="" style="edgeStyle=orthogonalEdgeStyle;rounded=0;orthogonalLoop=1;jettySize=auto;html=1;" edge="1" parent="1" source="CV6ZqZZLplrBWhdCv_qK-78" target="CV6ZqZZLplrBWhdCv_qK-80">
          <mxGeometry relative="1" as="geometry" />
        </mxCell>
        <mxCell id="CV6ZqZZLplrBWhdCv_qK-86" value="" style="edgeStyle=orthogonalEdgeStyle;rounded=0;orthogonalLoop=1;jettySize=auto;html=1;" edge="1" parent="1" source="CV6ZqZZLplrBWhdCv_qK-78" target="CV6ZqZZLplrBWhdCv_qK-85">
          <mxGeometry relative="1" as="geometry" />
        </mxCell>
        <mxCell id="CV6ZqZZLplrBWhdCv_qK-78" value="input loanAmt" style="shape=parallelogram;perimeter=parallelogramPerimeter;whiteSpace=wrap;html=1;fixedSize=1;" vertex="1" parent="1">
          <mxGeometry x="120" y="250" width="120" height="60" as="geometry" />
        </mxCell>
        <mxCell id="CV6ZqZZLplrBWhdCv_qK-83" value="" style="edgeStyle=orthogonalEdgeStyle;rounded=0;orthogonalLoop=1;jettySize=auto;html=1;" edge="1" parent="1" source="CV6ZqZZLplrBWhdCv_qK-80" target="CV6ZqZZLplrBWhdCv_qK-82">
          <mxGeometry relative="1" as="geometry" />
        </mxCell>
        <mxCell id="CV6ZqZZLplrBWhdCv_qK-88" value="" style="edgeStyle=orthogonalEdgeStyle;rounded=0;orthogonalLoop=1;jettySize=auto;html=1;" edge="1" parent="1" source="CV6ZqZZLplrBWhdCv_qK-80" target="CV6ZqZZLplrBWhdCv_qK-87">
          <mxGeometry relative="1" as="geometry" />
        </mxCell>
        <mxCell id="CV6ZqZZLplrBWhdCv_qK-80" value="input intRate" style="shape=parallelogram;perimeter=parallelogramPerimeter;whiteSpace=wrap;html=1;fixedSize=1;" vertex="1" parent="1">
          <mxGeometry x="280" y="250" width="120" height="60" as="geometry" />
        </mxCell>
        <mxCell id="CV6ZqZZLplrBWhdCv_qK-90" value="" style="edgeStyle=orthogonalEdgeStyle;rounded=0;orthogonalLoop=1;jettySize=auto;html=1;" edge="1" parent="1" source="CV6ZqZZLplrBWhdCv_qK-82" target="CV6ZqZZLplrBWhdCv_qK-89">
          <mxGeometry relative="1" as="geometry" />
        </mxCell>
        <mxCell id="CV6ZqZZLplrBWhdCv_qK-82" value="input timeYears" style="shape=parallelogram;perimeter=parallelogramPerimeter;whiteSpace=wrap;html=1;fixedSize=1;" vertex="1" parent="1">
          <mxGeometry x="440" y="250" width="120" height="60" as="geometry" />
        </mxCell>
        <mxCell id="CV6ZqZZLplrBWhdCv_qK-95" style="edgeStyle=orthogonalEdgeStyle;rounded=0;orthogonalLoop=1;jettySize=auto;html=1;entryX=0;entryY=0.5;entryDx=0;entryDy=0;" edge="1" parent="1" source="CV6ZqZZLplrBWhdCv_qK-85" target="CV6ZqZZLplrBWhdCv_qK-91">
          <mxGeometry relative="1" as="geometry">
            <Array as="points">
              <mxPoint x="180" y="520" />
            </Array>
          </mxGeometry>
        </mxCell>
        <mxCell id="CV6ZqZZLplrBWhdCv_qK-85" value="str to float" style="whiteSpace=wrap;html=1;" vertex="1" parent="1">
          <mxGeometry x="120" y="370" width="120" height="60" as="geometry" />
        </mxCell>
        <mxCell id="CV6ZqZZLplrBWhdCv_qK-96" style="edgeStyle=orthogonalEdgeStyle;rounded=0;orthogonalLoop=1;jettySize=auto;html=1;entryX=0;entryY=0.5;entryDx=0;entryDy=0;" edge="1" parent="1" source="CV6ZqZZLplrBWhdCv_qK-87" target="CV6ZqZZLplrBWhdCv_qK-91">
          <mxGeometry relative="1" as="geometry">
            <Array as="points">
              <mxPoint x="340" y="520" />
            </Array>
          </mxGeometry>
        </mxCell>
        <mxCell id="CV6ZqZZLplrBWhdCv_qK-87" value="str to float" style="whiteSpace=wrap;html=1;" vertex="1" parent="1">
          <mxGeometry x="280" y="370" width="120" height="60" as="geometry" />
        </mxCell>
        <mxCell id="CV6ZqZZLplrBWhdCv_qK-92" value="" style="edgeStyle=orthogonalEdgeStyle;rounded=0;orthogonalLoop=1;jettySize=auto;html=1;" edge="1" parent="1" source="CV6ZqZZLplrBWhdCv_qK-89" target="CV6ZqZZLplrBWhdCv_qK-91">
          <mxGeometry relative="1" as="geometry" />
        </mxCell>
        <mxCell id="CV6ZqZZLplrBWhdCv_qK-89" value="str to float" style="whiteSpace=wrap;html=1;" vertex="1" parent="1">
          <mxGeometry x="440" y="370" width="120" height="60" as="geometry" />
        </mxCell>
        <mxCell id="CV6ZqZZLplrBWhdCv_qK-94" value="" style="edgeStyle=orthogonalEdgeStyle;rounded=0;orthogonalLoop=1;jettySize=auto;html=1;" edge="1" parent="1" source="CV6ZqZZLplrBWhdCv_qK-91" target="CV6ZqZZLplrBWhdCv_qK-93">
          <mxGeometry relative="1" as="geometry" />
        </mxCell>
        <mxCell id="CV6ZqZZLplrBWhdCv_qK-91" value="totalNumPay = timeYears*12" style="whiteSpace=wrap;html=1;" vertex="1" parent="1">
          <mxGeometry x="440" y="490" width="120" height="60" as="geometry" />
        </mxCell>
        <mxCell id="CV6ZqZZLplrBWhdCv_qK-99" value="" style="edgeStyle=orthogonalEdgeStyle;rounded=0;orthogonalLoop=1;jettySize=auto;html=1;" edge="1" parent="1" source="CV6ZqZZLplrBWhdCv_qK-93" target="CV6ZqZZLplrBWhdCv_qK-98">
          <mxGeometry relative="1" as="geometry" />
        </mxCell>
        <mxCell id="CV6ZqZZLplrBWhdCv_qK-93" value="calculate monthly payment" style="whiteSpace=wrap;html=1;" vertex="1" parent="1">
          <mxGeometry x="600" y="490" width="120" height="60" as="geometry" />
        </mxCell>
        <mxCell id="CV6ZqZZLplrBWhdCv_qK-102" style="edgeStyle=orthogonalEdgeStyle;rounded=0;orthogonalLoop=1;jettySize=auto;html=1;exitX=1;exitY=0.5;exitDx=0;exitDy=0;entryX=1;entryY=0.5;entryDx=0;entryDy=0;" edge="1" parent="1" source="CV6ZqZZLplrBWhdCv_qK-98" target="CV6ZqZZLplrBWhdCv_qK-71">
          <mxGeometry relative="1" as="geometry">
            <Array as="points">
              <mxPoint x="1080" y="520" />
              <mxPoint x="1080" y="160" />
            </Array>
          </mxGeometry>
        </mxCell>
        <mxCell id="CV6ZqZZLplrBWhdCv_qK-98" value="output monthlyPay" style="shape=parallelogram;perimeter=parallelogramPerimeter;whiteSpace=wrap;html=1;fixedSize=1;" vertex="1" parent="1">
          <mxGeometry x="760" y="490" width="120" height="60" as="geometry" />
        </mxCell>
        <mxCell id="CV6ZqZZLplrBWhdCv_qK-106" value="" style="edgeStyle=orthogonalEdgeStyle;rounded=0;orthogonalLoop=1;jettySize=auto;html=1;" edge="1" parent="1" source="CV6ZqZZLplrBWhdCv_qK-103" target="CV6ZqZZLplrBWhdCv_qK-105">
          <mxGeometry relative="1" as="geometry" />
        </mxCell>
        <mxCell id="CV6ZqZZLplrBWhdCv_qK-103" value="input loanType&lt;div&gt;(direct or FFEL/other)&lt;/div&gt;" style="shape=parallelogram;perimeter=parallelogramPerimeter;whiteSpace=wrap;html=1;fixedSize=1;" vertex="1" parent="1">
          <mxGeometry x="240" y="850" width="120" height="60" as="geometry" />
        </mxCell>
        <mxCell id="CV6ZqZZLplrBWhdCv_qK-108" value="" style="edgeStyle=orthogonalEdgeStyle;rounded=0;orthogonalLoop=1;jettySize=auto;html=1;" edge="1" parent="1" source="CV6ZqZZLplrBWhdCv_qK-105" target="CV6ZqZZLplrBWhdCv_qK-107">
          <mxGeometry relative="1" as="geometry" />
        </mxCell>
        <mxCell id="CV6ZqZZLplrBWhdCv_qK-105" value="input occupation&lt;div&gt;(for profit or non-profti)&lt;/div&gt;" style="shape=parallelogram;perimeter=parallelogramPerimeter;whiteSpace=wrap;html=1;fixedSize=1;" vertex="1" parent="1">
          <mxGeometry x="400" y="850" width="120" height="60" as="geometry" />
        </mxCell>
        <mxCell id="CV6ZqZZLplrBWhdCv_qK-110" value="" style="edgeStyle=orthogonalEdgeStyle;rounded=0;orthogonalLoop=1;jettySize=auto;html=1;" edge="1" parent="1" source="CV6ZqZZLplrBWhdCv_qK-107" target="CV6ZqZZLplrBWhdCv_qK-109">
          <mxGeometry relative="1" as="geometry" />
        </mxCell>
        <mxCell id="CV6ZqZZLplrBWhdCv_qK-114" value="" style="edgeStyle=orthogonalEdgeStyle;rounded=0;orthogonalLoop=1;jettySize=auto;html=1;" edge="1" parent="1" source="CV6ZqZZLplrBWhdCv_qK-107" target="CV6ZqZZLplrBWhdCv_qK-113">
          <mxGeometry relative="1" as="geometry" />
        </mxCell>
        <mxCell id="CV6ZqZZLplrBWhdCv_qK-107" value="input income" style="shape=parallelogram;perimeter=parallelogramPerimeter;whiteSpace=wrap;html=1;fixedSize=1;" vertex="1" parent="1">
          <mxGeometry x="560" y="850" width="120" height="60" as="geometry" />
        </mxCell>
        <mxCell id="CV6ZqZZLplrBWhdCv_qK-112" value="" style="edgeStyle=orthogonalEdgeStyle;rounded=0;orthogonalLoop=1;jettySize=auto;html=1;" edge="1" parent="1" source="CV6ZqZZLplrBWhdCv_qK-109" target="CV6ZqZZLplrBWhdCv_qK-111">
          <mxGeometry relative="1" as="geometry" />
        </mxCell>
        <mxCell id="CV6ZqZZLplrBWhdCv_qK-117" value="" style="edgeStyle=orthogonalEdgeStyle;rounded=0;orthogonalLoop=1;jettySize=auto;html=1;" edge="1" parent="1" source="CV6ZqZZLplrBWhdCv_qK-109" target="CV6ZqZZLplrBWhdCv_qK-115">
          <mxGeometry relative="1" as="geometry" />
        </mxCell>
        <mxCell id="CV6ZqZZLplrBWhdCv_qK-109" value="input outstandingBalance" style="shape=parallelogram;perimeter=parallelogramPerimeter;whiteSpace=wrap;html=1;fixedSize=1;" vertex="1" parent="1">
          <mxGeometry x="720" y="850" width="120" height="60" as="geometry" />
        </mxCell>
        <mxCell id="CV6ZqZZLplrBWhdCv_qK-118" value="" style="edgeStyle=orthogonalEdgeStyle;rounded=0;orthogonalLoop=1;jettySize=auto;html=1;" edge="1" parent="1" source="CV6ZqZZLplrBWhdCv_qK-111" target="CV6ZqZZLplrBWhdCv_qK-116">
          <mxGeometry relative="1" as="geometry" />
        </mxCell>
        <mxCell id="CV6ZqZZLplrBWhdCv_qK-111" value="input timeRemaining" style="shape=parallelogram;perimeter=parallelogramPerimeter;whiteSpace=wrap;html=1;fixedSize=1;" vertex="1" parent="1">
          <mxGeometry x="880" y="850" width="120" height="60" as="geometry" />
        </mxCell>
        <mxCell id="CV6ZqZZLplrBWhdCv_qK-113" value="str to float" style="shape=parallelogram;perimeter=parallelogramPerimeter;whiteSpace=wrap;html=1;fixedSize=1;" vertex="1" parent="1">
          <mxGeometry x="560" y="970" width="120" height="60" as="geometry" />
        </mxCell>
        <mxCell id="CV6ZqZZLplrBWhdCv_qK-115" value="str to float" style="shape=parallelogram;perimeter=parallelogramPerimeter;whiteSpace=wrap;html=1;fixedSize=1;" vertex="1" parent="1">
          <mxGeometry x="720" y="970" width="120" height="60" as="geometry" />
        </mxCell>
        <mxCell id="CV6ZqZZLplrBWhdCv_qK-116" value="str to float" style="shape=parallelogram;perimeter=parallelogramPerimeter;whiteSpace=wrap;html=1;fixedSize=1;" vertex="1" parent="1">
          <mxGeometry x="880" y="970" width="120" height="60" as="geometry" />
        </mxCell>
      </root>
    </mxGraphModel>
  </diagram>
</mxfile>
